<?xml version="1.0" encoding="UTF-8"?>
<svg xmlns="http://www.w3.org/2000/svg" xmlns:xlink="http://www.w3.org/1999/xlink" width="173.17pt" height="146.28pt" viewBox="0 0 173.17 146.28">
<defs>
<g>
<g id="glyph-0-0">
<path d="M 9.734375 -1.984375 C 9.734375 -2.4375 9.421875 -2.640625 9.171875 -2.8125 L 3.59375 -6.328125 L 9.171875 -9.828125 C 9.421875 -10 9.734375 -10.203125 9.734375 -10.65625 C 9.734375 -11.21875 9.25 -11.5 8.859375 -11.5 C 8.640625 -11.5 8.578125 -11.5 8.234375 -11.28125 L 1.625 -7.125 C 1.40625 -6.984375 1.09375 -6.78125 1.09375 -6.328125 C 1.09375 -6.015625 1.296875 -5.75 1.546875 -5.5625 L 8.234375 -1.359375 C 8.578125 -1.140625 8.640625 -1.140625 8.859375 -1.140625 C 9.25 -1.140625 9.734375 -1.421875 9.734375 -1.984375 Z M 9.734375 -1.984375 "/>
</g>
<g id="glyph-0-1">
<path d="M 10.515625 -0.765625 C 10.515625 -1.453125 10.09375 -1.546875 9.4375 -1.546875 L 9.4375 -11.078125 C 10.09375 -11.078125 10.515625 -11.171875 10.515625 -11.859375 C 10.515625 -12.59375 9.921875 -12.625 9.546875 -12.625 L 8.40625 -12.625 C 7.5 -12.625 7.375 -12.3125 7.171875 -11.71875 L 5.40625 -6.21875 L 3.546875 -12.046875 C 3.3125 -12.59375 2.75 -12.625 2.421875 -12.625 L 1.28125 -12.625 C 0.90625 -12.625 0.3125 -12.59375 0.3125 -11.859375 C 0.3125 -11.171875 0.71875 -11.078125 1.390625 -11.078125 L 1.390625 -1.546875 C 0.71875 -1.546875 0.3125 -1.453125 0.3125 -0.765625 C 0.3125 -0.015625 0.90625 0 1.28125 0 L 2.9375 0 C 3.3125 0 3.90625 -0.015625 3.90625 -0.765625 C 3.90625 -1.453125 3.484375 -1.546875 2.84375 -1.546875 L 2.84375 -9.984375 L 4.671875 -4.5 C 4.828125 -4.28125 5.125 -4.109375 5.40625 -4.109375 C 5.71875 -4.109375 6.078125 -4.296875 6.265625 -4.640625 L 8 -9.984375 L 8 -1.546875 C 7.328125 -1.546875 6.921875 -1.453125 6.921875 -0.765625 C 6.921875 -0.015625 7.515625 0 7.890625 0 L 9.546875 0 C 9.921875 0 10.515625 -0.015625 10.515625 -0.765625 Z M 10.515625 -0.765625 "/>
</g>
<g id="glyph-0-2">
<path d="M 9.28125 -0.765625 C 9.28125 -1.53125 8.65625 -1.546875 8.28125 -1.546875 L 6.28125 -1.546875 L 6.28125 -11.078125 L 8.28125 -11.078125 C 8.65625 -11.078125 9.28125 -11.09375 9.28125 -11.84375 C 9.28125 -12.59375 8.65625 -12.625 8.28125 -12.625 L 2.5625 -12.625 C 2.1875 -12.625 1.5625 -12.59375 1.5625 -11.859375 C 1.5625 -11.09375 2.1875 -11.078125 2.5625 -11.078125 L 4.5625 -11.078125 L 4.5625 -1.546875 L 2.5625 -1.546875 C 2.1875 -1.546875 1.5625 -1.53125 1.5625 -0.78125 C 1.5625 -0.015625 2.1875 0 2.5625 0 L 8.28125 0 C 8.65625 0 9.28125 -0.015625 9.28125 -0.765625 Z M 9.28125 -0.765625 "/>
</g>
<g id="glyph-0-3">
<path d="M 10.28125 -11.84375 C 10.28125 -12.59375 9.703125 -12.625 9.3125 -12.625 L 7.1875 -12.625 C 6.796875 -12.625 6.21875 -12.59375 6.21875 -11.84375 C 6.21875 -11.09375 6.8125 -11.078125 7.1875 -11.078125 L 7.515625 -11.078125 L 7.515625 -2.5625 L 4.109375 -11.796875 C 3.84375 -12.53125 3.484375 -12.625 2.875 -12.625 L 1.515625 -12.625 C 1.140625 -12.625 0.53125 -12.59375 0.53125 -11.859375 C 0.53125 -11.09375 1.109375 -11.078125 1.515625 -11.078125 L 1.859375 -11.078125 L 1.859375 -1.546875 L 1.515625 -1.546875 C 1.140625 -1.546875 0.53125 -1.53125 0.53125 -0.78125 C 0.53125 -0.015625 1.109375 0 1.515625 0 L 3.640625 0 C 4 0 4.609375 -0.015625 4.609375 -0.765625 C 4.609375 -1.53125 4.03125 -1.546875 3.640625 -1.546875 L 3.3125 -1.546875 L 3.3125 -10.0625 L 6.71875 -0.828125 C 7 -0.015625 7.375 0 7.96875 0 C 8.703125 0 8.96875 -0.078125 8.96875 -0.984375 L 8.96875 -11.078125 L 9.3125 -11.078125 C 9.6875 -11.078125 10.28125 -11.09375 10.28125 -11.84375 Z M 10.28125 -11.84375 "/>
</g>
<g id="glyph-0-4">
<path d="M 10.328125 -10.15625 L 10.328125 -11.625 C 10.328125 -12.375 10.1875 -12.625 9.359375 -12.625 L 1.484375 -12.625 C 0.703125 -12.625 0.5 -12.4375 0.5 -11.625 L 0.5 -10.15625 C 0.5 -9.703125 0.515625 -9.171875 1.34375 -9.171875 C 2.1875 -9.171875 2.203125 -9.6875 2.203125 -10.15625 L 2.203125 -11.078125 L 4.5625 -11.078125 L 4.5625 -1.546875 L 3.671875 -1.546875 C 3.3125 -1.546875 2.703125 -1.53125 2.703125 -0.78125 C 2.703125 -0.015625 3.28125 0 3.671875 0 L 7.171875 0 C 7.546875 0 8.140625 -0.015625 8.140625 -0.765625 C 8.140625 -1.53125 7.5625 -1.546875 7.171875 -1.546875 L 6.28125 -1.546875 L 6.28125 -11.078125 L 8.609375 -11.078125 L 8.609375 -10.15625 C 8.609375 -9.703125 8.640625 -9.171875 9.453125 -9.171875 C 10.3125 -9.171875 10.328125 -9.6875 10.328125 -10.15625 Z M 10.328125 -10.15625 "/>
</g>
<g id="glyph-0-5">
<path d="M 10.40625 -0.984375 L 10.40625 -2.765625 C 10.40625 -3.25 10.390625 -3.765625 9.5625 -3.765625 C 8.71875 -3.765625 8.703125 -3.265625 8.703125 -2.765625 L 8.703125 -1.546875 L 3.640625 -1.546875 L 3.640625 -5.765625 L 5.953125 -5.765625 C 5.96875 -4.921875 6.046875 -4.609375 6.8125 -4.609375 C 7.640625 -4.609375 7.65625 -5.125 7.65625 -5.59375 L 7.65625 -7.484375 C 7.65625 -7.9375 7.640625 -8.453125 6.8125 -8.453125 C 6.046875 -8.453125 5.96875 -8.140625 5.953125 -7.3125 L 3.640625 -7.3125 L 3.640625 -11.078125 L 8.234375 -11.078125 L 8.234375 -10.15625 C 8.234375 -9.703125 8.265625 -9.171875 9.09375 -9.171875 C 9.953125 -9.171875 9.953125 -9.6875 9.953125 -10.15625 L 9.953125 -11.625 C 9.953125 -12.375 9.8125 -12.625 9 -12.625 L 1.484375 -12.625 C 1.109375 -12.625 0.5 -12.59375 0.5 -11.859375 C 0.5 -11.09375 1.109375 -11.078125 1.484375 -11.078125 L 1.921875 -11.078125 L 1.921875 -1.546875 L 1.484375 -1.546875 C 1.09375 -1.546875 0.5 -1.53125 0.5 -0.765625 C 0.5 -0.015625 1.109375 0 1.484375 0 L 9.4375 0 C 10.21875 0 10.40625 -0.203125 10.40625 -0.984375 Z M 10.40625 -0.984375 "/>
</g>
<g id="glyph-0-6">
<path d="M 10.0625 -6.21875 C 10.0625 -9.546875 8.234375 -12.625 5.5 -12.625 L 1.34375 -12.625 C 0.953125 -12.625 0.34375 -12.59375 0.34375 -11.84375 C 0.34375 -11.09375 0.96875 -11.078125 1.34375 -11.078125 L 1.625 -11.078125 L 1.625 -1.546875 L 1.34375 -1.546875 C 0.953125 -1.546875 0.34375 -1.53125 0.34375 -0.765625 C 0.34375 -0.015625 0.96875 0 1.34375 0 L 5.5 0 C 8.203125 0 10.0625 -2.890625 10.0625 -6.21875 Z M 8.359375 -6.21875 C 8.359375 -3.953125 7.265625 -1.546875 5.125 -1.546875 L 3.34375 -1.546875 L 3.34375 -11.078125 L 5.125 -11.078125 C 7.3125 -11.078125 8.359375 -8.46875 8.359375 -6.21875 Z M 8.359375 -6.21875 "/>
</g>
<g id="glyph-0-7">
<path d="M 9.734375 -6.328125 C 9.734375 -6.625 9.515625 -6.90625 9.28125 -7.078125 L 2.578125 -11.28125 C 2.25 -11.5 2.1875 -11.5 1.96875 -11.5 C 1.5625 -11.5 1.09375 -11.21875 1.09375 -10.65625 C 1.09375 -10.203125 1.40625 -10 1.65625 -9.828125 L 7.234375 -6.328125 L 1.65625 -2.8125 C 1.40625 -2.640625 1.09375 -2.4375 1.09375 -1.984375 C 1.09375 -1.421875 1.5625 -1.140625 1.96875 -1.140625 C 2.1875 -1.140625 2.25 -1.140625 2.578125 -1.359375 L 9.1875 -5.515625 C 9.421875 -5.65625 9.734375 -5.859375 9.734375 -6.328125 Z M 9.734375 -6.328125 "/>
</g>
<g id="glyph-1-0">
<path d="M 4.390625 -12.125 L 2.921875 -12.34375 C 2.34375 -12.421875 2 -12.21875 1.9375 -11.734375 C 1.875 -11.296875 2.125 -11.03125 2.71875 -10.953125 L 3.5625 -10.828125 L 2.09375 -0.609375 C 2.015625 -0.015625 2.078125 0.296875 2.734375 0.390625 C 3.296875 0.46875 3.53125 0.25 3.609375 -0.296875 C 4.171875 0.40625 4.890625 0.828125 5.71875 0.9375 C 6.921875 1.109375 8.03125 0.796875 8.96875 -0.015625 C 9.90625 -0.78125 10.4375 -1.796875 10.625 -3.015625 C 10.796875 -4.21875 10.5625 -5.3125 9.96875 -6.296875 C 9.34375 -7.34375 8.40625 -7.953125 7.25 -8.109375 C 6.3125 -8.25 5.4375 -8.09375 4.65625 -7.609375 L 5.15625 -11.09375 C 5.25 -11.796875 5.09375 -12.03125 4.390625 -12.125 Z M 9.078125 -3.234375 C 8.84375 -1.609375 7.46875 -0.21875 5.890625 -0.453125 C 4.640625 -0.625 3.875 -2.109375 4.0625 -3.421875 L 4.265625 -4.890625 C 4.4375 -6.09375 5.765625 -6.90625 6.921875 -6.75 C 8.453125 -6.53125 9.296875 -4.828125 9.078125 -3.234375 Z M 9.078125 -3.234375 "/>
</g>
<g id="glyph-1-1">
<path d="M 10.703125 0.8125 C 10.765625 0.4375 10.53125 0.171875 10.046875 0.015625 L 8.828125 -0.28125 L 9.4375 -4.5625 C 9.734375 -6.640625 8.015625 -8.03125 5.8125 -8.359375 C 3.828125 -8.640625 2.765625 -8.265625 2.609375 -7.21875 C 2.515625 -6.5625 2.8125 -6.171875 3.453125 -6.078125 C 3.671875 -6.046875 3.90625 -6.109375 4.125 -6.21875 C 4.375 -6.375 4.515625 -6.671875 4.59375 -7.046875 C 4.65625 -7.0625 5.015625 -7.046875 5.65625 -6.953125 C 7.265625 -6.734375 8 -5.96875 7.859375 -4.71875 C 6.40625 -4.90625 5.140625 -4.875 4.0625 -4.6875 C 2.453125 -4.390625 1.5625 -3.671875 1.390625 -2.515625 C 1.15625 -0.8125 2.625 0.5 4.40625 0.75 C 5.5625 0.921875 6.578125 0.8125 7.4375 0.421875 C 7.71875 0.890625 8.40625 1.203125 9.53125 1.359375 C 10.203125 1.453125 10.609375 1.46875 10.703125 0.8125 Z M 2.953125 -2.28125 C 3.015625 -2.734375 3.484375 -3.078125 4.34375 -3.28125 C 5.171875 -3.484375 6.28125 -3.515625 7.671875 -3.375 L 7.4375 -1.75 C 7.390625 -1.40625 7.28125 -1.15625 7.125 -0.984375 C 6.6875 -0.578125 5.890625 -0.453125 4.75 -0.609375 C 3.8125 -0.75 2.828125 -1.40625 2.953125 -2.28125 Z M 2.953125 -2.28125 "/>
</g>
<g id="glyph-1-2">
<path d="M 9.5625 -1.296875 C 9.640625 -1.875 9.46875 -2.203125 8.90625 -2.28125 C 8.359375 -2.359375 8.078125 -2.078125 8 -1.515625 C 7.875 -0.671875 7.09375 -0.28125 6.28125 -0.390625 C 5.15625 -0.5625 4.875 -1.078125 5.015625 -2.078125 L 5.6875 -6.8125 L 8.890625 -6.34375 C 9.5 -6.265625 9.796875 -6.4375 9.859375 -6.890625 C 9.9375 -7.421875 9.65625 -7.640625 9.09375 -7.71875 L 5.890625 -8.1875 L 6.109375 -9.765625 C 6.203125 -10.375 6.140625 -10.6875 5.484375 -10.78125 C 4.9375 -10.859375 4.671875 -10.609375 4.578125 -9.984375 L 4.359375 -8.40625 L 2.671875 -8.640625 C 2.078125 -8.734375 1.75 -8.53125 1.671875 -8.0625 C 1.609375 -7.609375 1.859375 -7.359375 2.453125 -7.265625 L 4.15625 -7.03125 L 3.46875 -2.171875 C 3.21875 -0.390625 4.21875 0.734375 5.96875 0.984375 C 7.6875 1.21875 9.328125 0.375 9.5625 -1.296875 Z M 9.5625 -1.296875 "/>
</g>
</g>
<clipPath id="clip-0">
<path clip-rule="nonzero" d="M 13 33 L 156 33 L 156 132 L 13 132 Z M 13 33 "/>
</clipPath>
<clipPath id="clip-1">
<path clip-rule="nonzero" d="M 56.386719 103.5625 L 155.601562 117.734375 L 155.601562 46.867188 L 56.386719 32.695312 Z M 56.386719 103.5625 L 13.867188 131.90625 L 13.867188 61.039062 L 56.386719 32.695312 Z M 56.386719 103.5625 "/>
</clipPath>
<linearGradient id="linear-pattern-0" gradientUnits="userSpaceOnUse" x1="0" y1="25.002948" x2="0" y2="74.997052" gradientTransform="matrix(2.83502, 0, 0, -1.98451, -57.0182, 181.5264)">
<stop offset="0" stop-color="rgb(30.003357%, 22.502136%, 15.000916%)" stop-opacity="1"/>
<stop offset="0.00390625" stop-color="rgb(30.276489%, 22.706604%, 15.136719%)" stop-opacity="1"/>
<stop offset="0.0078125" stop-color="rgb(30.549622%, 22.912598%, 15.274048%)" stop-opacity="1"/>
<stop offset="0.0117187" stop-color="rgb(30.822754%, 23.117065%, 15.409851%)" stop-opacity="1"/>
<stop offset="0.015625" stop-color="rgb(31.095886%, 23.321533%, 15.54718%)" stop-opacity="1"/>
<stop offset="0.0195313" stop-color="rgb(31.369019%, 23.526001%, 15.684509%)" stop-opacity="1"/>
<stop offset="0.0234375" stop-color="rgb(31.643677%, 23.731995%, 15.821838%)" stop-opacity="1"/>
<stop offset="0.0273437" stop-color="rgb(31.916809%, 23.936462%, 15.957642%)" stop-opacity="1"/>
<stop offset="0.03125" stop-color="rgb(32.189941%, 24.142456%, 16.094971%)" stop-opacity="1"/>
<stop offset="0.0351563" stop-color="rgb(32.463074%, 24.346924%, 16.230774%)" stop-opacity="1"/>
<stop offset="0.0390625" stop-color="rgb(32.737732%, 24.552917%, 16.368103%)" stop-opacity="1"/>
<stop offset="0.0429687" stop-color="rgb(33.010864%, 24.757385%, 16.503906%)" stop-opacity="1"/>
<stop offset="0.046875" stop-color="rgb(33.283997%, 24.961853%, 16.641235%)" stop-opacity="1"/>
<stop offset="0.0507813" stop-color="rgb(33.557129%, 25.166321%, 16.777039%)" stop-opacity="1"/>
<stop offset="0.0546875" stop-color="rgb(33.830261%, 25.372314%, 16.914368%)" stop-opacity="1"/>
<stop offset="0.0585937" stop-color="rgb(34.103394%, 25.576782%, 17.051697%)" stop-opacity="1"/>
<stop offset="0.0625" stop-color="rgb(34.378052%, 25.782776%, 17.189026%)" stop-opacity="1"/>
<stop offset="0.0664063" stop-color="rgb(34.651184%, 25.987244%, 17.324829%)" stop-opacity="1"/>
<stop offset="0.0703125" stop-color="rgb(34.924316%, 26.193237%, 17.462158%)" stop-opacity="1"/>
<stop offset="0.0742187" stop-color="rgb(35.197449%, 26.397705%, 17.597961%)" stop-opacity="1"/>
<stop offset="0.078125" stop-color="rgb(35.470581%, 26.603699%, 17.735291%)" stop-opacity="1"/>
<stop offset="0.0820312" stop-color="rgb(35.743713%, 26.808167%, 17.871094%)" stop-opacity="1"/>
<stop offset="0.0859375" stop-color="rgb(36.018372%, 27.012634%, 18.008423%)" stop-opacity="1"/>
<stop offset="0.0898437" stop-color="rgb(36.291504%, 27.217102%, 18.144226%)" stop-opacity="1"/>
<stop offset="0.09375" stop-color="rgb(36.564636%, 27.423096%, 18.281555%)" stop-opacity="1"/>
<stop offset="0.0976562" stop-color="rgb(36.837769%, 27.627563%, 18.417358%)" stop-opacity="1"/>
<stop offset="0.101562" stop-color="rgb(37.110901%, 27.833557%, 18.554688%)" stop-opacity="1"/>
<stop offset="0.105469" stop-color="rgb(37.384033%, 28.038025%, 18.692017%)" stop-opacity="1"/>
<stop offset="0.109375" stop-color="rgb(37.658691%, 28.244019%, 18.829346%)" stop-opacity="1"/>
<stop offset="0.113281" stop-color="rgb(37.931824%, 28.448486%, 18.965149%)" stop-opacity="1"/>
<stop offset="0.117188" stop-color="rgb(38.204956%, 28.652954%, 19.102478%)" stop-opacity="1"/>
<stop offset="0.121094" stop-color="rgb(38.478088%, 28.857422%, 19.238281%)" stop-opacity="1"/>
<stop offset="0.125" stop-color="rgb(38.752747%, 29.063416%, 19.37561%)" stop-opacity="1"/>
<stop offset="0.128906" stop-color="rgb(39.025879%, 29.267883%, 19.511414%)" stop-opacity="1"/>
<stop offset="0.132813" stop-color="rgb(39.299011%, 29.473877%, 19.648743%)" stop-opacity="1"/>
<stop offset="0.136719" stop-color="rgb(39.572144%, 29.678345%, 19.784546%)" stop-opacity="1"/>
<stop offset="0.140625" stop-color="rgb(39.845276%, 29.884338%, 19.921875%)" stop-opacity="1"/>
<stop offset="0.144531" stop-color="rgb(40.118408%, 30.088806%, 20.057678%)" stop-opacity="1"/>
<stop offset="0.148438" stop-color="rgb(40.393066%, 30.293274%, 20.195007%)" stop-opacity="1"/>
<stop offset="0.152344" stop-color="rgb(40.666199%, 30.497742%, 20.332336%)" stop-opacity="1"/>
<stop offset="0.15625" stop-color="rgb(40.939331%, 30.703735%, 20.469666%)" stop-opacity="1"/>
<stop offset="0.160156" stop-color="rgb(41.212463%, 30.908203%, 20.605469%)" stop-opacity="1"/>
<stop offset="0.164063" stop-color="rgb(41.485596%, 31.114197%, 20.742798%)" stop-opacity="1"/>
<stop offset="0.167969" stop-color="rgb(41.758728%, 31.318665%, 20.878601%)" stop-opacity="1"/>
<stop offset="0.171875" stop-color="rgb(42.033386%, 31.524658%, 21.01593%)" stop-opacity="1"/>
<stop offset="0.175781" stop-color="rgb(42.306519%, 31.729126%, 21.151733%)" stop-opacity="1"/>
<stop offset="0.179688" stop-color="rgb(42.579651%, 31.93512%, 21.289062%)" stop-opacity="1"/>
<stop offset="0.183594" stop-color="rgb(42.852783%, 32.139587%, 21.424866%)" stop-opacity="1"/>
<stop offset="0.1875" stop-color="rgb(43.125916%, 32.344055%, 21.562195%)" stop-opacity="1"/>
<stop offset="0.191406" stop-color="rgb(43.399048%, 32.548523%, 21.699524%)" stop-opacity="1"/>
<stop offset="0.195313" stop-color="rgb(43.673706%, 32.754517%, 21.836853%)" stop-opacity="1"/>
<stop offset="0.199219" stop-color="rgb(43.946838%, 32.958984%, 21.972656%)" stop-opacity="1"/>
<stop offset="0.203125" stop-color="rgb(44.219971%, 33.164978%, 22.109985%)" stop-opacity="1"/>
<stop offset="0.207031" stop-color="rgb(44.493103%, 33.369446%, 22.245789%)" stop-opacity="1"/>
<stop offset="0.210938" stop-color="rgb(44.767761%, 33.575439%, 22.383118%)" stop-opacity="1"/>
<stop offset="0.214844" stop-color="rgb(45.040894%, 33.779907%, 22.518921%)" stop-opacity="1"/>
<stop offset="0.21875" stop-color="rgb(45.314026%, 33.984375%, 22.65625%)" stop-opacity="1"/>
<stop offset="0.222656" stop-color="rgb(45.587158%, 34.188843%, 22.792053%)" stop-opacity="1"/>
<stop offset="0.226563" stop-color="rgb(45.860291%, 34.394836%, 22.929382%)" stop-opacity="1"/>
<stop offset="0.230469" stop-color="rgb(46.133423%, 34.599304%, 23.065186%)" stop-opacity="1"/>
<stop offset="0.234375" stop-color="rgb(46.408081%, 34.805298%, 23.202515%)" stop-opacity="1"/>
<stop offset="0.238281" stop-color="rgb(46.681213%, 35.009766%, 23.339844%)" stop-opacity="1"/>
<stop offset="0.242188" stop-color="rgb(46.954346%, 35.215759%, 23.477173%)" stop-opacity="1"/>
<stop offset="0.246094" stop-color="rgb(47.227478%, 35.420227%, 23.612976%)" stop-opacity="1"/>
<stop offset="0.25" stop-color="rgb(47.50061%, 35.624695%, 23.750305%)" stop-opacity="1"/>
<stop offset="0.253906" stop-color="rgb(47.773743%, 35.829163%, 23.886108%)" stop-opacity="1"/>
<stop offset="0.257813" stop-color="rgb(48.048401%, 36.035156%, 24.023438%)" stop-opacity="1"/>
<stop offset="0.261719" stop-color="rgb(48.321533%, 36.239624%, 24.159241%)" stop-opacity="1"/>
<stop offset="0.265625" stop-color="rgb(48.594666%, 36.445618%, 24.29657%)" stop-opacity="1"/>
<stop offset="0.269531" stop-color="rgb(48.867798%, 36.650085%, 24.432373%)" stop-opacity="1"/>
<stop offset="0.273438" stop-color="rgb(49.14093%, 36.856079%, 24.569702%)" stop-opacity="1"/>
<stop offset="0.277344" stop-color="rgb(49.414062%, 37.060547%, 24.705505%)" stop-opacity="1"/>
<stop offset="0.28125" stop-color="rgb(49.688721%, 37.265015%, 24.842834%)" stop-opacity="1"/>
<stop offset="0.285156" stop-color="rgb(49.961853%, 37.469482%, 24.980164%)" stop-opacity="1"/>
<stop offset="0.289063" stop-color="rgb(50.234985%, 37.675476%, 25.117493%)" stop-opacity="1"/>
<stop offset="0.292969" stop-color="rgb(50.508118%, 37.879944%, 25.253296%)" stop-opacity="1"/>
<stop offset="0.296875" stop-color="rgb(50.782776%, 38.085938%, 25.390625%)" stop-opacity="1"/>
<stop offset="0.300781" stop-color="rgb(51.055908%, 38.290405%, 25.526428%)" stop-opacity="1"/>
<stop offset="0.304688" stop-color="rgb(51.329041%, 38.496399%, 25.663757%)" stop-opacity="1"/>
<stop offset="0.308594" stop-color="rgb(51.602173%, 38.700867%, 25.799561%)" stop-opacity="1"/>
<stop offset="0.3125" stop-color="rgb(51.875305%, 38.90686%, 25.93689%)" stop-opacity="1"/>
<stop offset="0.316406" stop-color="rgb(52.148438%, 39.111328%, 26.072693%)" stop-opacity="1"/>
<stop offset="0.320312" stop-color="rgb(52.423096%, 39.315796%, 26.210022%)" stop-opacity="1"/>
<stop offset="0.324219" stop-color="rgb(52.696228%, 39.520264%, 26.347351%)" stop-opacity="1"/>
<stop offset="0.328125" stop-color="rgb(52.96936%, 39.726257%, 26.48468%)" stop-opacity="1"/>
<stop offset="0.332031" stop-color="rgb(53.242493%, 39.930725%, 26.620483%)" stop-opacity="1"/>
<stop offset="0.335938" stop-color="rgb(53.515625%, 40.136719%, 26.757812%)" stop-opacity="1"/>
<stop offset="0.339844" stop-color="rgb(53.788757%, 40.341187%, 26.893616%)" stop-opacity="1"/>
<stop offset="0.34375" stop-color="rgb(54.063416%, 40.54718%, 27.030945%)" stop-opacity="1"/>
<stop offset="0.347656" stop-color="rgb(54.336548%, 40.751648%, 27.166748%)" stop-opacity="1"/>
<stop offset="0.351562" stop-color="rgb(54.60968%, 40.956116%, 27.304077%)" stop-opacity="1"/>
<stop offset="0.355469" stop-color="rgb(54.882812%, 41.160583%, 27.43988%)" stop-opacity="1"/>
<stop offset="0.359375" stop-color="rgb(55.155945%, 41.366577%, 27.577209%)" stop-opacity="1"/>
<stop offset="0.363281" stop-color="rgb(55.429077%, 41.571045%, 27.713013%)" stop-opacity="1"/>
<stop offset="0.367188" stop-color="rgb(55.703735%, 41.777039%, 27.850342%)" stop-opacity="1"/>
<stop offset="0.371094" stop-color="rgb(55.976868%, 41.981506%, 27.987671%)" stop-opacity="1"/>
<stop offset="0.375" stop-color="rgb(56.25%, 42.1875%, 28.125%)" stop-opacity="1"/>
<stop offset="0.378906" stop-color="rgb(56.523132%, 42.391968%, 28.260803%)" stop-opacity="1"/>
<stop offset="0.382812" stop-color="rgb(56.797791%, 42.596436%, 28.398132%)" stop-opacity="1"/>
<stop offset="0.386719" stop-color="rgb(57.070923%, 42.800903%, 28.533936%)" stop-opacity="1"/>
<stop offset="0.390625" stop-color="rgb(57.344055%, 43.006897%, 28.671265%)" stop-opacity="1"/>
<stop offset="0.394531" stop-color="rgb(57.617188%, 43.211365%, 28.807068%)" stop-opacity="1"/>
<stop offset="0.398437" stop-color="rgb(57.89032%, 43.417358%, 28.944397%)" stop-opacity="1"/>
<stop offset="0.402344" stop-color="rgb(58.163452%, 43.621826%, 29.0802%)" stop-opacity="1"/>
<stop offset="0.40625" stop-color="rgb(58.43811%, 43.82782%, 29.217529%)" stop-opacity="1"/>
<stop offset="0.410156" stop-color="rgb(58.711243%, 44.032288%, 29.353333%)" stop-opacity="1"/>
<stop offset="0.414062" stop-color="rgb(58.984375%, 44.236755%, 29.490662%)" stop-opacity="1"/>
<stop offset="0.417969" stop-color="rgb(59.257507%, 44.441223%, 29.627991%)" stop-opacity="1"/>
<stop offset="0.421875" stop-color="rgb(59.53064%, 44.647217%, 29.76532%)" stop-opacity="1"/>
<stop offset="0.425781" stop-color="rgb(59.803772%, 44.851685%, 29.901123%)" stop-opacity="1"/>
<stop offset="0.429687" stop-color="rgb(60.07843%, 45.057678%, 30.038452%)" stop-opacity="1"/>
<stop offset="0.433594" stop-color="rgb(60.351562%, 45.262146%, 30.174255%)" stop-opacity="1"/>
<stop offset="0.4375" stop-color="rgb(60.624695%, 45.46814%, 30.311584%)" stop-opacity="1"/>
<stop offset="0.441406" stop-color="rgb(60.897827%, 45.672607%, 30.447388%)" stop-opacity="1"/>
<stop offset="0.445312" stop-color="rgb(61.170959%, 45.878601%, 30.584717%)" stop-opacity="1"/>
<stop offset="0.449219" stop-color="rgb(61.444092%, 46.083069%, 30.72052%)" stop-opacity="1"/>
<stop offset="0.453125" stop-color="rgb(61.71875%, 46.287537%, 30.857849%)" stop-opacity="1"/>
<stop offset="0.457031" stop-color="rgb(61.991882%, 46.492004%, 30.995178%)" stop-opacity="1"/>
<stop offset="0.460937" stop-color="rgb(62.265015%, 46.697998%, 31.132507%)" stop-opacity="1"/>
<stop offset="0.464844" stop-color="rgb(62.538147%, 46.902466%, 31.268311%)" stop-opacity="1"/>
<stop offset="0.46875" stop-color="rgb(62.812805%, 47.108459%, 31.40564%)" stop-opacity="1"/>
<stop offset="0.472656" stop-color="rgb(63.085938%, 47.312927%, 31.541443%)" stop-opacity="1"/>
<stop offset="0.476562" stop-color="rgb(63.35907%, 47.518921%, 31.678772%)" stop-opacity="1"/>
<stop offset="0.480469" stop-color="rgb(63.632202%, 47.723389%, 31.814575%)" stop-opacity="1"/>
<stop offset="0.484375" stop-color="rgb(63.905334%, 47.927856%, 31.951904%)" stop-opacity="1"/>
<stop offset="0.488281" stop-color="rgb(64.178467%, 48.132324%, 32.087708%)" stop-opacity="1"/>
<stop offset="0.492188" stop-color="rgb(64.453125%, 48.338318%, 32.225037%)" stop-opacity="1"/>
<stop offset="0.496094" stop-color="rgb(64.726257%, 48.542786%, 32.36084%)" stop-opacity="1"/>
<stop offset="0.5" stop-color="rgb(64.99939%, 48.748779%, 32.498169%)" stop-opacity="1"/>
<stop offset="0.503906" stop-color="rgb(65.272522%, 48.953247%, 32.635498%)" stop-opacity="1"/>
<stop offset="0.507812" stop-color="rgb(65.545654%, 49.159241%, 32.772827%)" stop-opacity="1"/>
<stop offset="0.511719" stop-color="rgb(65.818787%, 49.363708%, 32.90863%)" stop-opacity="1"/>
<stop offset="0.515625" stop-color="rgb(66.093445%, 49.568176%, 33.045959%)" stop-opacity="1"/>
<stop offset="0.519531" stop-color="rgb(66.366577%, 49.772644%, 33.181763%)" stop-opacity="1"/>
<stop offset="0.523438" stop-color="rgb(66.639709%, 49.978638%, 33.319092%)" stop-opacity="1"/>
<stop offset="0.527344" stop-color="rgb(66.912842%, 50.183105%, 33.454895%)" stop-opacity="1"/>
<stop offset="0.53125" stop-color="rgb(67.185974%, 50.389099%, 33.592224%)" stop-opacity="1"/>
<stop offset="0.535156" stop-color="rgb(67.459106%, 50.593567%, 33.728027%)" stop-opacity="1"/>
<stop offset="0.539063" stop-color="rgb(67.733765%, 50.799561%, 33.865356%)" stop-opacity="1"/>
<stop offset="0.542969" stop-color="rgb(68.006897%, 51.004028%, 34.00116%)" stop-opacity="1"/>
<stop offset="0.546875" stop-color="rgb(68.280029%, 51.208496%, 34.138489%)" stop-opacity="1"/>
<stop offset="0.550781" stop-color="rgb(68.553162%, 51.412964%, 34.275818%)" stop-opacity="1"/>
<stop offset="0.554688" stop-color="rgb(68.826294%, 51.618958%, 34.413147%)" stop-opacity="1"/>
<stop offset="0.558594" stop-color="rgb(69.099426%, 51.823425%, 34.54895%)" stop-opacity="1"/>
<stop offset="0.5625" stop-color="rgb(69.374084%, 52.029419%, 34.686279%)" stop-opacity="1"/>
<stop offset="0.566406" stop-color="rgb(69.647217%, 52.233887%, 34.822083%)" stop-opacity="1"/>
<stop offset="0.570313" stop-color="rgb(69.920349%, 52.43988%, 34.959412%)" stop-opacity="1"/>
<stop offset="0.574219" stop-color="rgb(70.193481%, 52.644348%, 35.095215%)" stop-opacity="1"/>
<stop offset="0.578125" stop-color="rgb(70.466614%, 52.850342%, 35.232544%)" stop-opacity="1"/>
<stop offset="0.582031" stop-color="rgb(70.739746%, 53.05481%, 35.368347%)" stop-opacity="1"/>
<stop offset="0.585937" stop-color="rgb(71.014404%, 53.259277%, 35.505676%)" stop-opacity="1"/>
<stop offset="0.589844" stop-color="rgb(71.287537%, 53.463745%, 35.643005%)" stop-opacity="1"/>
<stop offset="0.59375" stop-color="rgb(71.560669%, 53.669739%, 35.780334%)" stop-opacity="1"/>
<stop offset="0.597656" stop-color="rgb(71.833801%, 53.874207%, 35.916138%)" stop-opacity="1"/>
<stop offset="0.601563" stop-color="rgb(72.106934%, 54.0802%, 36.053467%)" stop-opacity="1"/>
<stop offset="0.605469" stop-color="rgb(72.380066%, 54.284668%, 36.18927%)" stop-opacity="1"/>
<stop offset="0.609375" stop-color="rgb(72.654724%, 54.490662%, 36.326599%)" stop-opacity="1"/>
<stop offset="0.613281" stop-color="rgb(72.927856%, 54.695129%, 36.462402%)" stop-opacity="1"/>
<stop offset="0.617187" stop-color="rgb(73.200989%, 54.899597%, 36.599731%)" stop-opacity="1"/>
<stop offset="0.621094" stop-color="rgb(73.474121%, 55.104065%, 36.735535%)" stop-opacity="1"/>
<stop offset="0.625" stop-color="rgb(73.747253%, 55.310059%, 36.872864%)" stop-opacity="1"/>
<stop offset="0.628906" stop-color="rgb(74.020386%, 55.514526%, 37.008667%)" stop-opacity="1"/>
<stop offset="0.632813" stop-color="rgb(74.295044%, 55.72052%, 37.145996%)" stop-opacity="1"/>
<stop offset="0.636719" stop-color="rgb(74.568176%, 55.924988%, 37.283325%)" stop-opacity="1"/>
<stop offset="0.640625" stop-color="rgb(74.841309%, 56.130981%, 37.420654%)" stop-opacity="1"/>
<stop offset="0.644531" stop-color="rgb(75.114441%, 56.335449%, 37.556458%)" stop-opacity="1"/>
<stop offset="0.648437" stop-color="rgb(75.387573%, 56.539917%, 37.693787%)" stop-opacity="1"/>
<stop offset="0.652344" stop-color="rgb(75.660706%, 56.744385%, 37.82959%)" stop-opacity="1"/>
<stop offset="0.65625" stop-color="rgb(75.935364%, 56.950378%, 37.966919%)" stop-opacity="1"/>
<stop offset="0.660156" stop-color="rgb(76.208496%, 57.154846%, 38.102722%)" stop-opacity="1"/>
<stop offset="0.664063" stop-color="rgb(76.481628%, 57.36084%, 38.240051%)" stop-opacity="1"/>
<stop offset="0.667969" stop-color="rgb(76.754761%, 57.565308%, 38.375854%)" stop-opacity="1"/>
<stop offset="0.671875" stop-color="rgb(77.029419%, 57.771301%, 38.513184%)" stop-opacity="1"/>
<stop offset="0.675781" stop-color="rgb(77.302551%, 57.975769%, 38.648987%)" stop-opacity="1"/>
<stop offset="0.679687" stop-color="rgb(77.575684%, 58.180237%, 38.786316%)" stop-opacity="1"/>
<stop offset="0.683594" stop-color="rgb(77.848816%, 58.384705%, 38.923645%)" stop-opacity="1"/>
<stop offset="0.6875" stop-color="rgb(78.121948%, 58.590698%, 39.060974%)" stop-opacity="1"/>
<stop offset="0.691406" stop-color="rgb(78.395081%, 58.795166%, 39.196777%)" stop-opacity="1"/>
<stop offset="0.695313" stop-color="rgb(78.669739%, 59.00116%, 39.334106%)" stop-opacity="1"/>
<stop offset="0.699219" stop-color="rgb(78.942871%, 59.205627%, 39.46991%)" stop-opacity="1"/>
<stop offset="0.703125" stop-color="rgb(79.216003%, 59.411621%, 39.607239%)" stop-opacity="1"/>
<stop offset="0.707031" stop-color="rgb(79.489136%, 59.616089%, 39.743042%)" stop-opacity="1"/>
<stop offset="0.710937" stop-color="rgb(79.762268%, 59.822083%, 39.880371%)" stop-opacity="1"/>
<stop offset="0.714844" stop-color="rgb(80.0354%, 60.02655%, 40.016174%)" stop-opacity="1"/>
<stop offset="0.71875" stop-color="rgb(80.310059%, 60.231018%, 40.153503%)" stop-opacity="1"/>
<stop offset="0.722656" stop-color="rgb(80.583191%, 60.435486%, 40.290833%)" stop-opacity="1"/>
<stop offset="0.726563" stop-color="rgb(80.856323%, 60.641479%, 40.428162%)" stop-opacity="1"/>
<stop offset="0.730469" stop-color="rgb(81.129456%, 60.845947%, 40.563965%)" stop-opacity="1"/>
<stop offset="0.734375" stop-color="rgb(81.402588%, 61.051941%, 40.701294%)" stop-opacity="1"/>
<stop offset="0.738281" stop-color="rgb(81.67572%, 61.256409%, 40.837097%)" stop-opacity="1"/>
<stop offset="0.742187" stop-color="rgb(81.950378%, 61.462402%, 40.974426%)" stop-opacity="1"/>
<stop offset="0.746094" stop-color="rgb(82.223511%, 61.66687%, 41.110229%)" stop-opacity="1"/>
<stop offset="0.75" stop-color="rgb(82.496643%, 61.871338%, 41.247559%)" stop-opacity="1"/>
<stop offset="0.753906" stop-color="rgb(82.769775%, 62.075806%, 41.383362%)" stop-opacity="1"/>
<stop offset="0.757812" stop-color="rgb(83.042908%, 62.281799%, 41.520691%)" stop-opacity="1"/>
<stop offset="0.761719" stop-color="rgb(83.31604%, 62.486267%, 41.656494%)" stop-opacity="1"/>
<stop offset="0.765625" stop-color="rgb(83.590698%, 62.692261%, 41.793823%)" stop-opacity="1"/>
<stop offset="0.769531" stop-color="rgb(83.863831%, 62.896729%, 41.931152%)" stop-opacity="1"/>
<stop offset="0.773437" stop-color="rgb(84.136963%, 63.102722%, 42.068481%)" stop-opacity="1"/>
<stop offset="0.777344" stop-color="rgb(84.410095%, 63.30719%, 42.204285%)" stop-opacity="1"/>
<stop offset="0.78125" stop-color="rgb(84.683228%, 63.511658%, 42.341614%)" stop-opacity="1"/>
<stop offset="0.785156" stop-color="rgb(84.95636%, 63.716125%, 42.477417%)" stop-opacity="1"/>
<stop offset="0.789062" stop-color="rgb(85.231018%, 63.922119%, 42.614746%)" stop-opacity="1"/>
<stop offset="0.792969" stop-color="rgb(85.50415%, 64.126587%, 42.750549%)" stop-opacity="1"/>
<stop offset="0.796875" stop-color="rgb(85.777283%, 64.332581%, 42.887878%)" stop-opacity="1"/>
<stop offset="0.800781" stop-color="rgb(86.050415%, 64.537048%, 43.023682%)" stop-opacity="1"/>
<stop offset="0.804687" stop-color="rgb(86.323547%, 64.743042%, 43.161011%)" stop-opacity="1"/>
<stop offset="0.808594" stop-color="rgb(86.59668%, 64.94751%, 43.296814%)" stop-opacity="1"/>
<stop offset="0.8125" stop-color="rgb(86.871338%, 65.151978%, 43.434143%)" stop-opacity="1"/>
<stop offset="0.816406" stop-color="rgb(87.14447%, 65.356445%, 43.571472%)" stop-opacity="1"/>
<stop offset="0.820312" stop-color="rgb(87.417603%, 65.562439%, 43.708801%)" stop-opacity="1"/>
<stop offset="0.824219" stop-color="rgb(87.690735%, 65.766907%, 43.844604%)" stop-opacity="1"/>
<stop offset="0.828125" stop-color="rgb(87.963867%, 65.9729%, 43.981934%)" stop-opacity="1"/>
<stop offset="0.832031" stop-color="rgb(88.237%, 66.177368%, 44.117737%)" stop-opacity="1"/>
<stop offset="0.835937" stop-color="rgb(88.511658%, 66.383362%, 44.255066%)" stop-opacity="1"/>
<stop offset="0.839844" stop-color="rgb(88.78479%, 66.58783%, 44.390869%)" stop-opacity="1"/>
<stop offset="0.84375" stop-color="rgb(89.057922%, 66.793823%, 44.528198%)" stop-opacity="1"/>
<stop offset="0.847656" stop-color="rgb(89.331055%, 66.998291%, 44.664001%)" stop-opacity="1"/>
<stop offset="0.851562" stop-color="rgb(89.604187%, 67.202759%, 44.801331%)" stop-opacity="1"/>
<stop offset="0.855469" stop-color="rgb(89.877319%, 67.407227%, 44.93866%)" stop-opacity="1"/>
<stop offset="0.859375" stop-color="rgb(90.151978%, 67.61322%, 45.075989%)" stop-opacity="1"/>
<stop offset="0.863281" stop-color="rgb(90.42511%, 67.817688%, 45.211792%)" stop-opacity="1"/>
<stop offset="0.867187" stop-color="rgb(90.698242%, 68.023682%, 45.349121%)" stop-opacity="1"/>
<stop offset="0.871094" stop-color="rgb(90.971375%, 68.228149%, 45.484924%)" stop-opacity="1"/>
<stop offset="0.875" stop-color="rgb(91.244507%, 68.434143%, 45.622253%)" stop-opacity="1"/>
<stop offset="0.878906" stop-color="rgb(91.517639%, 68.638611%, 45.758057%)" stop-opacity="1"/>
<stop offset="0.882812" stop-color="rgb(91.792297%, 68.843079%, 45.895386%)" stop-opacity="1"/>
<stop offset="0.886719" stop-color="rgb(92.06543%, 69.047546%, 46.031189%)" stop-opacity="1"/>
<stop offset="0.890625" stop-color="rgb(92.338562%, 69.25354%, 46.168518%)" stop-opacity="1"/>
<stop offset="0.894531" stop-color="rgb(92.611694%, 69.458008%, 46.304321%)" stop-opacity="1"/>
<stop offset="0.898437" stop-color="rgb(92.884827%, 69.664001%, 46.44165%)" stop-opacity="1"/>
<stop offset="0.902344" stop-color="rgb(93.157959%, 69.868469%, 46.578979%)" stop-opacity="1"/>
<stop offset="0.90625" stop-color="rgb(93.432617%, 70.074463%, 46.716309%)" stop-opacity="1"/>
<stop offset="0.910156" stop-color="rgb(93.70575%, 70.278931%, 46.852112%)" stop-opacity="1"/>
<stop offset="0.914062" stop-color="rgb(93.978882%, 70.483398%, 46.989441%)" stop-opacity="1"/>
<stop offset="0.917969" stop-color="rgb(94.252014%, 70.687866%, 47.125244%)" stop-opacity="1"/>
<stop offset="0.921875" stop-color="rgb(94.525146%, 70.89386%, 47.262573%)" stop-opacity="1"/>
<stop offset="0.925781" stop-color="rgb(94.798279%, 71.098328%, 47.398376%)" stop-opacity="1"/>
<stop offset="0.929687" stop-color="rgb(95.072937%, 71.304321%, 47.535706%)" stop-opacity="1"/>
<stop offset="0.933594" stop-color="rgb(95.346069%, 71.508789%, 47.671509%)" stop-opacity="1"/>
<stop offset="0.9375" stop-color="rgb(95.619202%, 71.714783%, 47.808838%)" stop-opacity="1"/>
<stop offset="0.941406" stop-color="rgb(95.892334%, 71.91925%, 47.944641%)" stop-opacity="1"/>
<stop offset="0.945312" stop-color="rgb(96.166992%, 72.123718%, 48.08197%)" stop-opacity="1"/>
<stop offset="0.949219" stop-color="rgb(96.440125%, 72.328186%, 48.219299%)" stop-opacity="1"/>
<stop offset="0.953125" stop-color="rgb(96.713257%, 72.53418%, 48.356628%)" stop-opacity="1"/>
<stop offset="0.957031" stop-color="rgb(96.986389%, 72.738647%, 48.492432%)" stop-opacity="1"/>
<stop offset="0.960937" stop-color="rgb(97.259521%, 72.944641%, 48.629761%)" stop-opacity="1"/>
<stop offset="0.964844" stop-color="rgb(97.532654%, 73.149109%, 48.765564%)" stop-opacity="1"/>
<stop offset="0.96875" stop-color="rgb(97.807312%, 73.355103%, 48.902893%)" stop-opacity="1"/>
<stop offset="0.972656" stop-color="rgb(98.080444%, 73.55957%, 49.038696%)" stop-opacity="1"/>
<stop offset="0.976562" stop-color="rgb(98.353577%, 73.765564%, 49.176025%)" stop-opacity="1"/>
<stop offset="0.980469" stop-color="rgb(98.626709%, 73.970032%, 49.311829%)" stop-opacity="1"/>
<stop offset="0.984375" stop-color="rgb(98.899841%, 74.1745%, 49.449158%)" stop-opacity="1"/>
<stop offset="0.988281" stop-color="rgb(99.172974%, 74.378967%, 49.586487%)" stop-opacity="1"/>
<stop offset="0.992188" stop-color="rgb(99.447632%, 74.584961%, 49.723816%)" stop-opacity="1"/>
<stop offset="0.996094" stop-color="rgb(99.720764%, 74.789429%, 49.859619%)" stop-opacity="1"/>
<stop offset="1" stop-color="rgb(99.993896%, 74.995422%, 49.996948%)" stop-opacity="1"/>
</linearGradient>
<clipPath id="clip-2">
<path clip-rule="nonzero" d="M 13 46 L 156 46 L 156 146.28125 L 13 146.28125 Z M 13 46 "/>
</clipPath>
<clipPath id="clip-3">
<path clip-rule="nonzero" d="M 8 41 L 162 41 L 162 146.28125 L 8 146.28125 Z M 8 41 "/>
</clipPath>
<clipPath id="clip-4">
<path clip-rule="nonzero" d="M 0 0 L 173.171875 0 L 173.171875 116 L 0 116 Z M 0 0 "/>
</clipPath>
</defs>
<g clip-path="url(#clip-0)">
<g clip-path="url(#clip-1)">
<path fill-rule="nonzero" fill="url(#linear-pattern-0)" d="M 13.867188 131.90625 L 13.867188 32.695312 L 155.601562 32.695312 L 155.601562 131.90625 Z M 13.867188 131.90625 "/>
</g>
</g>
<path fill="none" stroke-width="0.3985" stroke-linecap="butt" stroke-linejoin="miter" stroke="rgb(0%, 0%, 0%)" stroke-opacity="1" stroke-miterlimit="10" d="M 0.00071875 -0.0015 L 99.215563 -14.173375 L 99.215563 56.693812 L 0.00071875 70.865687 Z M 0.00071875 -0.0015 L -42.518813 -28.34525 L -42.518813 42.521937 L 0.00071875 70.865687 Z M 0.00071875 -0.0015 " transform="matrix(1, 0, 0, -1, 56.386, 103.561)"/>
<g fill="rgb(100%, 0%, 0%)" fill-opacity="1">
<use xlink:href="#glyph-0-0" x="47.657" y="66.779"/>
<use xlink:href="#glyph-0-1" x="58.504812" y="66.779"/>
<use xlink:href="#glyph-0-2" x="69.352625" y="66.779"/>
<use xlink:href="#glyph-0-3" x="80.200437" y="66.779"/>
<use xlink:href="#glyph-0-4" x="91.04825" y="66.779"/>
<use xlink:href="#glyph-0-5" x="101.896062" y="66.779"/>
<use xlink:href="#glyph-0-6" x="112.743875" y="66.779"/>
<use xlink:href="#glyph-0-7" x="123.591688" y="66.779"/>
</g>
<g clip-path="url(#clip-2)">
<path fill-rule="nonzero" fill="rgb(100%, 75%, 50%)" fill-opacity="1" d="M 113.078125 146.082031 L 13.867188 131.90625 L 13.867188 61.039062 L 113.078125 75.214844 Z M 113.078125 146.082031 L 155.601562 117.734375 L 155.601562 46.867188 L 113.078125 75.214844 Z M 113.078125 146.082031 "/>
</g>
<g clip-path="url(#clip-3)">
<path fill="none" stroke-width="0.3985" stroke-linecap="butt" stroke-linejoin="miter" stroke="rgb(0%, 0%, 0%)" stroke-opacity="1" stroke-miterlimit="10" d="M 56.692125 -42.521031 L -42.518813 -28.34525 L -42.518813 42.521937 L 56.692125 28.346156 Z M 56.692125 -42.521031 L 99.215563 -14.173375 L 99.215563 56.693812 L 56.692125 28.346156 Z M 56.692125 -42.521031 " transform="matrix(1, 0, 0, -1, 56.386, 103.561)"/>
</g>
<g fill="rgb(0%, 0%, 0%)" fill-opacity="1">
<use xlink:href="#glyph-1-0" x="49.359678" y="122.73072"/>
<use xlink:href="#glyph-1-1" x="60.098037" y="124.264601"/>
<use xlink:href="#glyph-1-2" x="70.836395" y="125.798481"/>
</g>
<path fill-rule="nonzero" fill="rgb(100%, 79.998779%, 59.999084%)" fill-opacity="1" d="M 56.386719 32.695312 L 13.867188 61.039062 L 0.199219 29.890625 L 42.71875 1.546875 Z M 13.867188 61.039062 L 113.078125 75.214844 L 102.496094 107.539062 L 3.28125 93.367188 Z M 113.078125 75.214844 L 155.601562 46.867188 L 167.410156 81.773438 L 124.886719 110.121094 Z M 155.601562 46.867188 L 56.386719 32.695312 L 73.757812 0.195312 L 172.972656 14.371094 Z M 155.601562 46.867188 "/>
<g clip-path="url(#clip-4)">
<path fill="none" stroke-width="0.3985" stroke-linecap="butt" stroke-linejoin="miter" stroke="rgb(0%, 0%, 0%)" stroke-opacity="1" stroke-miterlimit="10" d="M 0.00071875 70.865687 L -42.518813 42.521937 L -56.186781 73.670375 L -13.66725 102.014125 Z M -42.518813 42.521937 L 56.692125 28.346156 L 46.110094 -3.978063 L -53.10475 10.193812 Z M 56.692125 28.346156 L 99.215563 56.693812 L 111.024156 21.787562 L 68.500719 -6.560094 Z M 99.215563 56.693812 L 0.00071875 70.865687 L 17.371812 103.365687 L 116.586656 89.189906 Z M 99.215563 56.693812 " transform="matrix(1, 0, 0, -1, 56.386, 103.561)"/>
</g>
</svg>
